<svg width="44" height="44" viewBox="0 0 44 44" fill="none" xmlns="http://www.w3.org/2000/svg">
<path d="M39.2857 44H4.71429C2.11161 44 0 41.8884 0 39.2857V4.71429C0 2.11161 2.11161 0 4.71429 0H39.2857C41.8884 0 44 2.11161 44 4.71429V39.2857C44 41.8884 41.8884 44 39.2857 44ZM23.3848 14.3295L10.0571 27.6571L9.43839 33.2652C9.35982 34.0116 9.98839 34.65 10.7446 34.5714L16.3527 33.9527L29.6804 20.625C29.9063 20.3991 29.9063 20.0259 29.6804 19.7902L24.2295 14.3393C23.9839 14.1036 23.6107 14.1036 23.3848 14.3295ZM33.8839 13.0723L30.9277 10.1161C30.0045 9.19286 28.5116 9.19286 27.5982 10.1161L25.3295 12.3848C25.1036 12.6107 25.1036 12.9839 25.3295 13.2196L30.7804 18.6705C31.0062 18.8964 31.3795 18.8964 31.6152 18.6705L33.8839 16.4018C34.7973 15.4884 34.7973 13.9955 33.8839 13.0723Z" fill="#FF6F00"/>
</svg>
