<svg width="30" height="30" viewBox="0 0 30 30" fill="none" xmlns="http://www.w3.org/2000/svg">
<path d="M20.4784 10.3418H19.1044C18.8056 10.3418 18.5214 10.4854 18.3456 10.7314L13.7401 17.1182L11.6542 14.2236C11.4784 13.9805 11.1972 13.834 10.8954 13.834H9.52137C9.33094 13.834 9.21961 14.0508 9.33094 14.2061L12.9813 19.2686C13.0676 19.3889 13.1813 19.487 13.313 19.5546C13.4447 19.6223 13.5906 19.6576 13.7387 19.6576C13.8867 19.6576 14.0327 19.6223 14.1644 19.5546C14.2961 19.487 14.4098 19.3889 14.496 19.2686L20.6659 10.7139C20.7802 10.5586 20.6689 10.3418 20.4784 10.3418V10.3418Z" fill="#3A4750"/>
<path d="M15 1.875C7.75195 1.875 1.875 7.75195 1.875 15C1.875 22.248 7.75195 28.125 15 28.125C22.248 28.125 28.125 22.248 28.125 15C28.125 7.75195 22.248 1.875 15 1.875ZM15 25.8984C8.98242 25.8984 4.10156 21.0176 4.10156 15C4.10156 8.98242 8.98242 4.10156 15 4.10156C21.0176 4.10156 25.8984 8.98242 25.8984 15C25.8984 21.0176 21.0176 25.8984 15 25.8984Z" fill="#3A4750"/>
</svg>
