<svg width="30" height="30" viewBox="0 0 30 30" fill="none" xmlns="http://www.w3.org/2000/svg">
<path d="M15 2.5C8.0875 2.5 2.5 8.0875 2.5 15C2.5 21.9125 8.0875 27.5 15 27.5C21.9125 27.5 27.5 21.9125 27.5 15C27.5 8.0875 21.9125 2.5 15 2.5ZM15 25C9.4875 25 5 20.5125 5 15C5 9.4875 9.4875 5 15 5C20.5125 5 25 9.4875 25 15C25 20.5125 20.5125 25 15 25ZM19.4875 8.75L15 13.2375L10.5125 8.75L8.75 10.5125L13.2375 15L8.75 19.4875L10.5125 21.25L15 16.7625L19.4875 21.25L21.25 19.4875L16.7625 15L21.25 10.5125L19.4875 8.75Z" fill="#FF6F00"/>
</svg>
