<svg height="512pt" viewBox="0 0 512 512" width="512pt" xmlns="http://www.w3.org/2000/svg"><path d="m8.535156 401.066406c4.710938 0 8.53125-3.820312 8.53125-8.53125v-17.070312c0-4.710938-3.820312-8.53125-8.53125-8.53125-4.714844 0-8.535156 3.820312-8.535156 8.53125v17.070312c0 4.710938 3.820312 8.53125 8.535156 8.53125zm0 0"/><path d="m42.667969 401.066406v-34.132812c0-4.714844-3.820313-8.535156-8.535157-8.535156-4.710937 0-8.53125 3.820312-8.53125 8.535156v34.132812c0 4.714844 3.820313 8.535156 8.53125 8.535156 4.714844 0 8.535157-3.820312 8.535157-8.535156zm0 0"/><path d="m145.066406 401.066406v-34.132812c0-4.714844-3.820312-8.535156-8.53125-8.535156-4.714844 0-8.535156 3.820312-8.535156 8.535156v34.132812c0 4.714844 3.820312 8.535156 8.535156 8.535156 4.710938 0 8.53125-3.820312 8.53125-8.535156zm0 0"/><path d="m76.800781 418.132812v-68.265624c0-4.714844-3.820312-8.535157-8.535156-8.535157-4.710937 0-8.53125 3.820313-8.53125 8.535157v68.265624c0 4.714844 3.820313 8.535157 8.53125 8.535157 4.714844 0 8.535156-3.820313 8.535156-8.535157zm0 0"/><path d="m110.933594 418.132812v-68.265624c0-4.714844-3.820313-8.535157-8.535156-8.535157-4.710938 0-8.53125 3.820313-8.53125 8.535157v68.265624c0 4.714844 3.820312 8.535157 8.53125 8.535157 4.714843 0 8.535156-3.820313 8.535156-8.535157zm0 0"/><path d="m179.199219 435.199219v-102.398438c0-4.714843-3.820313-8.535156-8.53125-8.535156-4.714844 0-8.535157 3.820313-8.535157 8.535156v102.398438c0 4.714843 3.820313 8.535156 8.535157 8.535156 4.710937 0 8.53125-3.820313 8.53125-8.535156zm0 0"/><path d="m213.332031 452.265625v-136.53125c0-4.714844-3.820312-8.535156-8.53125-8.535156-4.714843 0-8.535156 3.820312-8.535156 8.535156v136.53125c0 4.714844 3.820313 8.535156 8.535156 8.535156 4.710938 0 8.53125-3.820312 8.53125-8.535156zm0 0"/><path d="m247.464844 503.464844v-238.929688c0-4.714844-3.820313-8.535156-8.53125-8.535156-4.714844 0-8.535156 3.820312-8.535156 8.535156v238.929688c0 4.714844 3.820312 8.535156 8.535156 8.535156 4.710937 0 8.53125-3.820312 8.53125-8.535156zm0 0"/><path d="m503.464844 366.933594c-4.710938 0-8.53125 3.820312-8.53125 8.53125v17.070312c0 4.710938 3.820312 8.53125 8.53125 8.53125 4.714844 0 8.535156-3.820312 8.535156-8.53125v-17.070312c0-4.710938-3.820312-8.53125-8.535156-8.53125zm0 0"/><path d="m486.398438 401.066406v-34.132812c0-4.714844-3.820313-8.535156-8.53125-8.535156-4.714844 0-8.535157 3.820312-8.535157 8.535156v34.132812c0 4.714844 3.820313 8.535156 8.535157 8.535156 4.710937 0 8.53125-3.820312 8.53125-8.535156zm0 0"/><path d="m384 401.066406v-34.132812c0-4.714844-3.820312-8.535156-8.535156-8.535156-4.710938 0-8.53125 3.820312-8.53125 8.535156v34.132812c0 4.714844 3.820312 8.535156 8.53125 8.535156 4.714844 0 8.535156-3.820312 8.535156-8.535156zm0 0"/><path d="m452.265625 418.132812v-68.265624c0-4.714844-3.820313-8.535157-8.53125-8.535157-4.714844 0-8.535156 3.820313-8.535156 8.535157v68.265624c0 4.714844 3.820312 8.535157 8.535156 8.535157 4.710937 0 8.53125-3.820313 8.53125-8.535157zm0 0"/><path d="m418.132812 418.132812v-68.265624c0-4.714844-3.820312-8.535157-8.53125-8.535157-4.714843 0-8.535156 3.820313-8.535156 8.535157v68.265624c0 4.714844 3.820313 8.535157 8.535156 8.535157 4.710938 0 8.53125-3.820313 8.53125-8.535157zm0 0"/><path d="m349.867188 435.199219v-102.398438c0-4.714843-3.820313-8.535156-8.535157-8.535156-4.710937 0-8.53125 3.820313-8.53125 8.535156v102.398438c0 4.714843 3.820313 8.535156 8.53125 8.535156 4.714844 0 8.535157-3.820313 8.535157-8.535156zm0 0"/><path d="m315.734375 452.265625v-136.53125c0-4.714844-3.820313-8.535156-8.535156-8.535156-4.710938 0-8.53125 3.820312-8.53125 8.535156v136.53125c0 4.714844 3.820312 8.535156 8.53125 8.535156 4.714843 0 8.535156-3.820312 8.535156-8.535156zm0 0"/><path d="m281.601562 503.464844v-238.929688c0-4.714844-3.820312-8.535156-8.535156-8.535156-4.710937 0-8.53125 3.820312-8.53125 8.535156v238.929688c0 4.714844 3.820313 8.535156 8.53125 8.535156 4.714844 0 8.535156-3.820312 8.535156-8.535156zm0 0"/><path d="m460.800781 0h-170.667969c-28.261718.03125-51.167968 22.9375-51.199218 51.199219v119.46875c.03125 28.261719 22.9375 51.167969 51.199218 51.199219h14.867188l-6.265625 50.140624c-.421875 3.375 1.199219 6.679688 4.128906 8.40625 2.929688 1.730469 6.605469 1.554688 9.359375-.449218l79.882813-58.097656h68.695312c28.261719-.03125 51.167969-22.9375 51.199219-51.199219v-119.46875c-.03125-28.261719-22.9375-51.167969-51.199219-51.199219zm34.132813 170.667969c-.019532 18.84375-15.289063 34.113281-34.132813 34.132812h-51.351562c.058593-1.789062-.460938-3.546875-1.484375-5.015625-1.328125-1.835937-3.332032-3.066406-5.566406-3.417968-2.238282-.355469-4.523438.199218-6.351563 1.53125l-77.933594 56.683593 6.085938-48.722656c.421875-3.046875-.828125-6.082031-3.273438-7.949219-2.445312-1.867187-5.703125-2.273437-8.53125-1.066406-2.824219 1.207031-4.785156 3.84375-5.128906 6.898438l-.132813 1.058593h-17c-18.84375-.019531-34.113281-15.289062-34.132812-34.132812v-119.46875c.019531-18.84375 15.289062-34.113281 34.132812-34.132813h170.667969c18.84375.019532 34.113281 15.289063 34.132813 34.132813zm0 0"/><path d="m307.199219 85.332031c-14.136719 0-25.597657 11.460938-25.597657 25.601563 0 14.136718 11.460938 25.601562 25.597657 25.601562 14.140625 0 25.601562-11.464844 25.601562-25.601562-.015625-14.132813-11.46875-25.585938-25.601562-25.601563zm0 34.132813c-4.710938 0-8.53125-3.820313-8.53125-8.53125 0-4.714844 3.820312-8.535156 8.53125-8.535156 4.714843 0 8.535156 3.820312 8.535156 8.535156-.003906 4.710937-3.824219 8.527344-8.535156 8.53125zm0 0"/><path d="m375.464844 85.332031c-14.136719 0-25.597656 11.460938-25.597656 25.601563 0 14.136718 11.460937 25.601562 25.597656 25.601562 14.140625 0 25.601562-11.464844 25.601562-25.601562-.015625-14.132813-11.46875-25.585938-25.601562-25.601563zm0 34.132813c-4.710938 0-8.53125-3.820313-8.53125-8.53125 0-4.714844 3.820312-8.535156 8.53125-8.535156 4.714844 0 8.535156 3.820312 8.535156 8.535156-.003906 4.710937-3.820312 8.527344-8.535156 8.53125zm0 0"/><path d="m443.734375 85.332031c-14.140625 0-25.601563 11.460938-25.601563 25.601563 0 14.136718 11.460938 25.601562 25.601563 25.601562 14.136719 0 25.597656-11.464844 25.597656-25.601562-.015625-14.132813-11.464843-25.585938-25.597656-25.601563zm0 34.132813c-4.714844 0-8.535156-3.820313-8.535156-8.53125 0-4.714844 3.820312-8.535156 8.535156-8.535156 4.710937 0 8.53125 3.820312 8.53125 8.535156-.003906 4.710937-3.820313 8.527344-8.53125 8.53125zm0 0"/></svg>