<svg width="56" height="48" viewBox="0 0 56 48" fill="none" xmlns="http://www.w3.org/2000/svg">
<path d="M9.33105 22.623V15.4819H14.0918V22.623H21.2139V27.3838H14.0918V34.5059H9.33105V27.3838H2.18994V22.623H9.33105Z" fill="#303841"/>
<path d="M29.375 17.875C29.7397 17.875 30.0894 18.0199 30.3473 18.2777C30.6051 18.5356 30.75 18.8853 30.75 19.25V22C30.75 24.9174 31.9089 27.7153 33.9718 29.7782C36.0347 31.8411 38.8326 33 41.75 33C44.6674 33 47.4653 31.8411 49.5282 29.7782C51.5911 27.7153 52.75 24.9174 52.75 22V19.25C52.75 18.8853 52.8949 18.5356 53.1527 18.2777C53.4106 18.0199 53.7603 17.875 54.125 17.875C54.4897 17.875 54.8394 18.0199 55.0973 18.2777C55.3551 18.5356 55.5 18.8853 55.5 19.25V22C55.5 25.4087 54.2339 28.6959 51.9473 31.2239C49.6607 33.7519 46.5166 35.3404 43.125 35.6813V41.25H51.375C51.7397 41.25 52.0894 41.3949 52.3473 41.6527C52.6051 41.9106 52.75 42.2603 52.75 42.625C52.75 42.9897 52.6051 43.3394 52.3473 43.5973C52.0894 43.8551 51.7397 44 51.375 44H32.125C31.7603 44 31.4106 43.8551 31.1527 43.5973C30.8949 43.3394 30.75 42.9897 30.75 42.625C30.75 42.2603 30.8949 41.9106 31.1527 41.6527C31.4106 41.3949 31.7603 41.25 32.125 41.25H40.375V35.6813C36.9834 35.3404 33.8393 33.7519 31.5527 31.2239C29.2661 28.6959 28 25.4087 28 22V19.25C28 18.8853 28.1449 18.5356 28.4027 18.2777C28.6606 18.0199 29.0103 17.875 29.375 17.875Z" fill="#303841"/>
<path d="M47.25 22C47.25 23.4587 46.6705 24.8576 45.6391 25.8891C44.6076 26.9205 43.2087 27.5 41.75 27.5C40.2913 27.5 38.8924 26.9205 37.8609 25.8891C36.8295 24.8576 36.25 23.4587 36.25 22V8.25C36.25 6.79131 36.8295 5.39236 37.8609 4.36091C38.8924 3.32946 40.2913 2.75 41.75 2.75C43.2087 2.75 44.6076 3.32946 45.6391 4.36091C46.6705 5.39236 47.25 6.79131 47.25 8.25V22ZM41.75 0C39.562 0 37.4635 0.869194 35.9164 2.41637C34.3692 3.96354 33.5 6.06196 33.5 8.25V22C33.5 24.188 34.3692 26.2865 35.9164 27.8336C37.4635 29.3808 39.562 30.25 41.75 30.25C43.938 30.25 46.0365 29.3808 47.5836 27.8336C49.1308 26.2865 50 24.188 50 22V8.25C50 6.06196 49.1308 3.96354 47.5836 2.41637C46.0365 0.869194 43.938 0 41.75 0Z" fill="#303841"/>
</svg>
