<svg width="44" height="44" viewBox="0 0 44 44" fill="none" xmlns="http://www.w3.org/2000/svg">
<path d="M8.25025 41.25H11.0003V37.125H16.5003C18.3231 37.1232 20.0707 36.3983 21.3596 35.1094C22.6485 33.8204 23.3734 32.0728 23.3753 30.25V28.49L26.5598 27.4299C26.755 27.3647 26.9332 27.2565 27.081 27.1133C27.2289 26.9701 27.3428 26.7955 27.4142 26.6025C27.4856 26.4094 27.5127 26.2028 27.4936 25.9978C27.4744 25.7928 27.4095 25.5948 27.3036 25.4183L23.3753 18.8691V15.125C23.3716 11.8441 22.0667 8.69855 19.7467 6.37857C17.4267 4.0586 14.2812 2.75364 11.0003 2.75H4.12525V5.5H11.0003C13.5521 5.50291 15.9985 6.51791 17.8029 8.32231C19.6073 10.1267 20.6223 12.5732 20.6253 15.125V19.25C20.6256 19.499 20.6935 19.7433 20.8219 19.9567L24.0628 25.3632L21.5644 26.1951C21.2907 26.2866 21.0528 26.4618 20.8842 26.696C20.7157 26.9302 20.6251 27.2115 20.6253 27.5V30.25C20.6242 31.3437 20.1892 32.3923 19.4159 33.1656C18.6425 33.939 17.5939 34.3739 16.5003 34.375H9.62525C9.26058 34.375 8.91084 34.5199 8.65298 34.7777C8.39512 35.0356 8.25025 35.3853 8.25025 35.75V41.25Z" fill="#FF6F00"/>
<path d="M17.875 16.5H12.375V19.25H17.875V16.5Z" fill="#FF6F00"/>
<path d="M31.1684 34.6734C32.1775 33.7706 32.9848 32.6651 33.5376 31.429C34.0903 30.1929 34.376 28.8541 34.376 27.5C34.376 26.146 34.0903 24.8072 33.5376 23.5711C32.9848 22.335 32.1775 21.2295 31.1684 20.3267L29.3341 22.3754C30.055 23.0203 30.6317 23.81 31.0265 24.6929C31.4213 25.5758 31.6254 26.5322 31.6254 27.4993C31.6254 28.4665 31.4213 29.4229 31.0265 30.3058C30.6317 31.1887 30.055 31.9784 29.3341 32.6233L31.1684 34.6734Z" fill="#FF6F00"/>
<path d="M35.1999 39.6C37.0778 38.1908 38.602 36.3639 39.6518 34.2637C40.7015 32.1636 41.248 29.8479 41.248 27.5C41.248 25.1521 40.7015 22.8365 39.6518 20.7363C38.602 18.6362 37.0778 16.8092 35.1999 15.4L33.5499 17.6C35.0871 18.7527 36.3347 20.2475 37.1941 21.9659C38.0534 23.6844 38.5008 25.5794 38.5008 27.5007C38.5008 29.4221 38.0534 31.317 37.1941 33.0355C36.3347 34.754 35.0871 36.2487 33.5499 37.4014L35.1999 39.6Z" fill="#FF6F00"/>
</svg>
