<svg width="44" height="44" viewBox="0 0 44 44" fill="none" xmlns="http://www.w3.org/2000/svg">
<path d="M33.4585 17.4166H32.0835V26.5833H33.4585C34.7217 26.5833 35.7502 25.5548 35.7502 24.2916V19.7083C35.7502 18.4451 34.7217 17.4166 33.4585 17.4166Z" fill="#FF6F00"/>
<path d="M38.9583 0H5.04167C2.2605 0 0 2.2605 0 5.04167V38.9583C0 41.7395 2.2605 44 5.04167 44H38.9583C41.7395 44 44 41.7395 44 38.9583V5.04167C44 2.2605 41.7395 0 38.9583 0ZM10.5417 26.5833H13.2917C14.0507 26.5833 14.6667 27.1993 14.6667 27.9583C14.6667 28.7173 14.0507 29.3333 13.2917 29.3333H10.5417C7.7605 29.3333 5.5 27.0728 5.5 24.2917V19.7083C5.5 16.9272 7.7605 14.6667 10.5417 14.6667H13.2917C14.0507 14.6667 14.6667 15.2827 14.6667 16.0417C14.6667 16.8007 14.0507 17.4167 13.2917 17.4167H10.5417C9.2785 17.4167 8.25 18.4452 8.25 19.7083V24.2917C8.25 25.5548 9.2785 26.5833 10.5417 26.5833ZM27.5 27.9583C27.5 28.7173 26.884 29.3333 26.125 29.3333C25.366 29.3333 24.75 28.7173 24.75 27.9583V20.724L23.1568 23.2027C22.6508 23.991 21.351 23.991 20.8432 23.2027L19.25 20.724V27.9583C19.25 28.7173 18.634 29.3333 17.875 29.3333C17.116 29.3333 16.5 28.7173 16.5 27.9583V16.0417C16.5 15.4312 16.9015 14.894 17.4882 14.7217C18.0712 14.5493 18.7037 14.784 19.0318 15.2973L22 19.9155L24.9682 15.2973C25.2982 14.784 25.927 14.5493 26.5118 14.7217C27.0967 14.894 27.5 15.4312 27.5 16.0417V27.9583ZM38.5 24.2917C38.5 27.0728 36.2395 29.3333 33.4583 29.3333H30.7083C29.9493 29.3333 29.3333 28.7173 29.3333 27.9583V16.0417C29.3333 15.2827 29.9493 14.6667 30.7083 14.6667H33.4583C36.2395 14.6667 38.5 16.9272 38.5 19.7083V24.2917Z" fill="#FF6F00"/>
</svg>
