<svg width="30" height="30" viewBox="0 0 30 30" fill="none" xmlns="http://www.w3.org/2000/svg">
<path d="M0.713821 4.55108e-07H3.534C3.63066 -0.000108728 3.72634 0.0194286 3.81523 0.0574277C3.90412 0.0954268 3.98437 0.151096 4.05112 0.221059C4.11787 0.291023 4.16972 0.373823 4.20353 0.464439C4.23734 0.555054 4.25241 0.651598 4.24781 0.748214L4.00987 5.6744C5.39329 4.04314 7.11527 2.73308 9.05602 1.83537C10.9968 0.93765 13.1097 0.473835 15.2478 0.476191C23.377 0.476191 30.0059 7.11488 30 15.2494C29.994 23.397 23.3912 30 15.2478 30C11.5948 30.0051 8.07074 28.649 5.36256 26.1958C5.29022 26.131 5.23184 26.0522 5.191 25.964C5.15016 25.8759 5.12772 25.7803 5.12504 25.6832C5.12237 25.5861 5.13953 25.4895 5.17545 25.3992C5.21138 25.309 5.26534 25.227 5.33401 25.1583L7.35649 23.1345C7.48449 23.0065 7.65632 22.9318 7.83722 22.9258C8.01811 22.9197 8.19456 22.9826 8.33086 23.1018C9.92894 24.5087 11.9176 25.3948 14.0318 25.6419C16.146 25.889 18.2852 25.4853 20.1643 24.4848C22.0434 23.4843 23.573 21.9344 24.5494 20.0417C25.5257 18.149 25.9023 16.0035 25.629 13.8912C25.3557 11.7789 24.4454 9.80014 23.0196 8.2187C21.5937 6.63727 19.72 5.52831 17.6482 5.03966C15.5764 4.551 13.405 4.70587 11.4235 5.48362C9.4419 6.26137 7.74431 7.62505 6.55702 9.39285L12.5965 9.10297C12.6931 9.09838 12.7895 9.11345 12.8801 9.14729C12.9707 9.18112 13.0534 9.23301 13.1233 9.2998C13.1932 9.36659 13.2489 9.44689 13.2868 9.53584C13.3248 9.62479 13.3443 9.72053 13.3442 9.81726V12.6393C13.3442 12.8287 13.269 13.0104 13.1352 13.1444C13.0013 13.2783 12.8197 13.3536 12.6304 13.3536H0.713821C0.524504 13.3536 0.342941 13.2783 0.209074 13.1444C0.0752075 13.0104 6.4195e-07 12.8287 6.4195e-07 12.6393V0.714286C6.4195e-07 0.524846 0.0752075 0.343164 0.209074 0.20921C0.342941 0.0752553 0.524504 4.55108e-07 0.713821 4.55108e-07V4.55108e-07Z" fill="#3A4750"/>
</svg>
