<svg width="21" height="24" viewBox="0 0 21 24" fill="none" xmlns="http://www.w3.org/2000/svg">
<path d="M1.5625 1.5625C1.1481 1.5625 0.750671 1.72712 0.457646 2.02015C0.16462 2.31317 0 2.7106 0 3.125V4.6875C0 5.1019 0.16462 5.49933 0.457646 5.79235C0.750671 6.08538 1.1481 6.25 1.5625 6.25H2.34375V20.3125C2.34375 21.1413 2.67299 21.9362 3.25904 22.5222C3.84509 23.1083 4.63995 23.4375 5.46875 23.4375H14.8438C15.6726 23.4375 16.4674 23.1083 17.0535 22.5222C17.6395 21.9362 17.9688 21.1413 17.9688 20.3125V6.25H18.75C19.1644 6.25 19.5618 6.08538 19.8549 5.79235C20.1479 5.49933 20.3125 5.1019 20.3125 4.6875V3.125C20.3125 2.7106 20.1479 2.31317 19.8549 2.02015C19.5618 1.72712 19.1644 1.5625 18.75 1.5625H13.2812C13.2812 1.1481 13.1166 0.750671 12.8236 0.457646C12.5306 0.16462 12.1332 0 11.7188 0H8.59375C8.17935 0 7.78192 0.16462 7.4889 0.457646C7.19587 0.750671 7.03125 1.1481 7.03125 1.5625H1.5625ZM6.25 7.8125C6.4572 7.8125 6.65591 7.89481 6.80243 8.04132C6.94894 8.18783 7.03125 8.38655 7.03125 8.59375V19.5312C7.03125 19.7384 6.94894 19.9372 6.80243 20.0837C6.65591 20.2302 6.4572 20.3125 6.25 20.3125C6.0428 20.3125 5.84409 20.2302 5.69757 20.0837C5.55106 19.9372 5.46875 19.7384 5.46875 19.5312V8.59375C5.46875 8.38655 5.55106 8.18783 5.69757 8.04132C5.84409 7.89481 6.0428 7.8125 6.25 7.8125ZM10.1562 7.8125C10.3635 7.8125 10.5622 7.89481 10.7087 8.04132C10.8552 8.18783 10.9375 8.38655 10.9375 8.59375V19.5312C10.9375 19.7384 10.8552 19.9372 10.7087 20.0837C10.5622 20.2302 10.3635 20.3125 10.1562 20.3125C9.94905 20.3125 9.75034 20.2302 9.60382 20.0837C9.45731 19.9372 9.375 19.7384 9.375 19.5312V8.59375C9.375 8.38655 9.45731 8.18783 9.60382 8.04132C9.75034 7.89481 9.94905 7.8125 10.1562 7.8125ZM14.8438 8.59375V19.5312C14.8438 19.7384 14.7614 19.9372 14.6149 20.0837C14.4684 20.2302 14.2697 20.3125 14.0625 20.3125C13.8553 20.3125 13.6566 20.2302 13.5101 20.0837C13.3636 19.9372 13.2812 19.7384 13.2812 19.5312V8.59375C13.2812 8.38655 13.3636 8.18783 13.5101 8.04132C13.6566 7.89481 13.8553 7.8125 14.0625 7.8125C14.2697 7.8125 14.4684 7.89481 14.6149 8.04132C14.7614 8.18783 14.8438 8.38655 14.8438 8.59375Z" fill="#3A4750"/>
</svg>
